<svg xmlns="http://www.w3.org/2000/svg" xmlns:xlink="http://www.w3.org/1999/xlink"><symbol id="icon-arrow" viewBox="0 0 10 16">
<path d="M5 14.0032L5 2.00317M5 2.00317L9.00063 6.00317M5 2.00317L0.999365 6.00317" stroke="currentColor" stroke-width="2" stroke-linecap="round"/>
</symbol><symbol id="icon-close" viewBox="0 0 20 20"><path d="M.293 18.291a1 1 0 101.414 1.414L10 11.413l8.292 8.292a1 1 0 101.414-1.414l-8.292-8.292 8.292-8.292A1 1 0 1018.291.293L9.999 8.585 1.707.293A1 1 0 10.293 1.707L8.585 10 .293 18.291z"/></symbol><symbol id="icon-shevron" viewBox="0 0 7 4">
<path fill-rule="evenodd" clip-rule="evenodd" d="M2.82332 3.7465C2.98558 3.91016 3.19984 4 3.42953 4C3.65864 4 3.87404 3.91016 4.03517 3.7465L6.69026 0.987232C6.91366 0.761203 6.91366 0.395551 6.69026 0.169522C6.46743 -0.0565073 6.10577 -0.0565073 5.88236 0.169522L3.42953 2.72451L0.976121 0.169522C0.75272 -0.0565073 0.391623 -0.0565073 0.168222 0.169522C-0.0551788 0.395551 -0.0551788 0.761203 0.168222 0.987232L2.82332 3.7465Z" fill="currentColor"/>
</symbol></svg>